<svg width="97" height="97" viewBox="0 0 97 97" xmlns="http://www.w3.org/2000/svg">
  <path d="M48.125 0C21.547 0 0 21.546 0 48.125S21.547 96.25 48.125 96.25c26.579 0 48.125-21.546 48.125-48.125S74.704 0 48.125 0zm7.066 80.261c0 .829-.67 1.5-1.5 1.5H42.558c-.829 0-1.5-.671-1.5-1.5V37.829c0-.829.671-1.5 1.5-1.5h11.135c.828 0 1.5.671 1.5 1.5v42.432h-.002zm-7.066-51.273c-4.825 0-8.75-3.925-8.75-8.75s3.925-8.75 8.75-8.75 8.75 3.925 8.75 8.75-3.925 8.75-8.75 8.75z" fill="#FFF" fill-rule="evenodd"/>
</svg>
