<svg width="73" height="24" viewBox="0 0 73 24" xmlns="http://www.w3.org/2000/svg">
  <g fill-rule="evenodd">
    <path d="M11.806 3.144L9.153 5.762c-1.078-1.054-2.057-1.58-2.936-1.58-.482 0-.858.1-1.13.302-.272.2-.41.452-.41.75 0 .228.088.44.26.63.173.19.6.45 1.28.78l1.57.776c1.654.805 2.79 1.626 3.407 2.462.617.837.926 1.818.926 2.943 0 1.498-.557 2.747-1.672 3.75-1.115 1-2.61 1.5-4.482 1.5-2.49 0-4.48-.96-5.966-2.88l2.638-2.834c.502.58 1.09 1.046 1.765 1.4.676.36 1.275.536 1.8.536.563 0 1.02-.133 1.364-.402.345-.27.518-.58.518-.93 0-.65-.622-1.285-1.868-1.904l-1.444-.713C2.01 8.974.628 7.254.628 5.19c0-1.333.52-2.472 1.562-3.417C3.232.83 4.563.356 6.186.356c1.11 0 2.153.24 3.132.72.978.48 1.808 1.17 2.488 2.068M21.667 4.26c-1.325 0-2.425.462-3.3 1.385-.877.926-1.315 2.11-1.315 3.555 0 1.457.445 2.655 1.337 3.594.89.94 1.99 1.41 3.293 1.41 1.346 0 2.462-.462 3.348-1.386.888-.924 1.33-2.135 1.33-3.633 0-1.466-.442-2.654-1.33-3.563-.885-.908-2.007-1.363-3.363-1.363zM26.173.79h4.286v23.017h-4.287V15.86c-.837.786-1.675 1.35-2.517 1.698-.842.346-1.754.517-2.736.517-2.206 0-4.114-.843-5.724-2.532-1.61-1.687-2.415-3.786-2.415-6.295 0-2.603.78-4.735 2.337-6.398 1.558-1.662 3.45-2.494 5.677-2.494 1.025 0 1.986.19 2.885.573.898.38 1.73.954 2.493 1.72V.79zM32.482.79h4.332v8.116c0 1.58.11 2.677.33 3.292.22.615.575 1.092 1.063 1.433.487.34 1.088.51 1.8.51.715 0 1.322-.165 1.82-.502.498-.335.867-.83 1.11-1.48.178-.484.268-1.522.268-3.112V.79h4.285v7.14c0 2.944-.236 4.957-.706 6.04-.576 1.323-1.424 2.337-2.544 3.045-1.12.707-2.543 1.06-4.27 1.06-1.873 0-3.39-.412-4.545-1.238-1.156-.826-1.97-1.977-2.44-3.454-.336-1.022-.503-2.88-.503-5.577V.79zM49.392 18.093h4.286V.79h-4.286M68.65 7.11c-.283-.94-.84-1.704-1.675-2.293-.833-.59-1.8-.883-2.9-.883-1.196 0-2.245.33-3.146.992-.567.412-1.09 1.14-1.574 2.184h9.295zm4.287 3.33H59.17c.197 1.198.728 2.15 1.592 2.858.863.707 1.964 1.06 3.304 1.06 1.602 0 2.977-.552 4.13-1.657l3.61 1.674c-.9 1.26-1.977 2.19-3.234 2.796-1.256.604-2.747.906-4.475.906-2.68 0-4.86-.834-6.546-2.502-1.684-1.666-2.527-3.756-2.527-6.265 0-2.573.84-4.707 2.52-6.406 1.68-1.698 3.786-2.548 6.32-2.548 2.69 0 4.876.85 6.562 2.548 1.684 1.7 2.527 3.942 2.527 6.73l-.015.805z"/>
  </g>
</svg>
